<?xml version="1.0" encoding="UTF-8"?><svg width="1440" height="720" xmlns="http://www.w3.org/2000/svg" xmlns:xlink="http://www.w3.org/1999/xlink"><defs><linearGradient x1="-53.956%" y1="94.795%" x2="66.614%" y2="10.455%" id="n"><stop stop-color="#FFE5DA" offset="0%"/><stop stop-color="#FFF" offset="100%"/></linearGradient><linearGradient x1="-108.356%" y1="58.966%" x2="77.539%" y2="27.619%" id="A"><stop stop-color="#FFF4EF" offset="0%"/><stop stop-color="#F4B4A5" offset="100%"/></linearGradient><linearGradient x1="109.206%" y1="-83.258%" x2="8.196%" y2="66.242%" id="y"><stop stop-color="#2D2D63" offset="0%"/><stop stop-color="#1E1E3F" offset="100%"/></linearGradient><linearGradient x1="-19.53%" y1="100%" x2="78.582%" y2="101.924%" id="x"><stop stop-color="#FFF6F2" offset="0%"/><stop stop-color="#FDE7E1" offset="100%"/></linearGradient><linearGradient x1="-139.992%" y1="10.055%" x2="156.781%" y2="10.055%" id="i"><stop stop-color="#FFF4EF" offset="0%"/><stop stop-color="#F4B4A5" offset="100%"/></linearGradient><linearGradient x1="-71.084%" y1="72.235%" x2="111.612%" y2="72.235%" id="j"><stop stop-color="#2D2D63" offset="0%"/><stop stop-color="#1E1E3F" offset="100%"/></linearGradient><linearGradient x1="16.361%" y1="124.83%" x2="65.41%" y2="50%" id="k"><stop stop-color="#FFF4EF" offset="0%"/><stop stop-color="#F4B4A5" offset="100%"/></linearGradient><linearGradient x1="114.471%" y1="47.709%" x2="21.288%" y2="47.709%" id="l"><stop stop-color="#EBA492" offset="0%"/><stop stop-color="#F5B6A7" offset="100%"/></linearGradient><linearGradient x1="28.343%" y1="112.929%" x2="12.679%" y2="6.842%" id="z"><stop stop-color="#2D2D63" offset="0%"/><stop stop-color="#1E1E3F" offset="100%"/></linearGradient><linearGradient x1="93.059%" y1="144.828%" x2="-75.269%" y2="17.277%" id="w"><stop stop-color="#F66457" offset="0%"/><stop stop-color="#F66458" offset="100%"/></linearGradient><linearGradient x1="100%" y1="54.978%" x2="50%" y2="54.978%" id="p"><stop stop-color="#E83A39" offset="0%"/><stop stop-color="#F66458" offset="100%"/></linearGradient><linearGradient x1="85.675%" y1="42.576%" x2="0%" y2="54.978%" id="q"><stop stop-color="#E83A39" offset="0%"/><stop stop-color="#EC4642" offset="100%"/></linearGradient><linearGradient x1="-6.231%" y1="69.124%" x2="100%" y2="69.124%" id="r"><stop stop-color="#E83A39" offset="0%"/><stop stop-color="#E93C3A" offset="14.028%"/><stop stop-color="#F66458" offset="100%"/></linearGradient><linearGradient x1="8.508%" y1="46.664%" x2="142.493%" y2="69.124%" id="s"><stop stop-color="#E83A39" offset="0%"/><stop stop-color="#F66458" offset="100%"/></linearGradient><linearGradient x1="100%" y1="20.139%" x2="0%" y2="54.978%" id="t"><stop stop-color="#E83A39" offset="0%"/><stop stop-color="#F66458" offset="100%"/></linearGradient><linearGradient x1="-134.02%" y1="65.602%" x2="88.011%" y2="26.4%" id="u"><stop stop-color="#FFF4EF" offset="0%"/><stop stop-color="#F4B4A5" offset="100%"/></linearGradient><linearGradient x1="-108.356%" y1="58.966%" x2="89.565%" y2="57.058%" id="v"><stop stop-color="#FFF4EF" offset="0%"/><stop stop-color="#F4B4A5" offset="100%"/></linearGradient><radialGradient cx="93.107%" cy="80.797%" fx="93.107%" fy="80.797%" r="101.815%" gradientTransform="matrix(0 -1 1.67174 0 -.42 1.739)" id="a"><stop stop-color="#FFF" offset="0%"/><stop stop-color="#FFF" stop-opacity="0" offset="100%"/></radialGradient><radialGradient cx="36.109%" cy="84.644%" fx="36.109%" fy="84.644%" r="87.514%" gradientTransform="matrix(-.04078 -.99814 1.92926 -.17575 -1.257 1.356)" id="e"><stop stop-color="#6B4CB0" offset="0%"/><stop stop-color="#9272CC" offset="100%"/></radialGradient><radialGradient cx="50.358%" cy="-16.598%" fx="50.358%" fy="-16.598%" r="95.879%" gradientTransform="matrix(0 1 -.37733 0 .441 -.67)" id="f"><stop stop-color="#6C4EAF" offset="0%"/><stop stop-color="#9070CB" offset="100%"/></radialGradient><path id="b" d="M0 .716h9.178V9.92H0z"/><path id="c" d="M0 .716h9.192v9.197H0z"/><path d="M102.425 170.89c-9.624 0-17.1 1.233-22.43 3.697-7.994 3.695-24.734 8.59-32.764 3.731-8.03-4.858-23.853-8.736-36.932-10.887-8.72-1.434-11.903-7.667-9.548-18.697l14.1-82.694L35.356.777c1.02.464 1.723.96 2.109 1.488 6.301 8.627 12.937 12.94 19.909 12.94 7.61 0 14.174-2.752 19.69-8.256 12.825 21.049 20.666 41.803 23.524 62.264 2.858 20.461 3.47 54.354 1.836 101.678z" id="m"/><filter x="-10.7%" y="-167.9%" width="121.4%" height="435.9%" filterUnits="objectBoundingBox" id="h"><feGaussianBlur stdDeviation="13.435" in="SourceGraphic"/></filter><filter x="-10.7%" y="-167.9%" width="121.4%" height="435.9%" filterUnits="objectBoundingBox" id="g"><feGaussianBlur stdDeviation="13.435" in="SourceGraphic"/></filter></defs><g fill="none" fill-rule="evenodd"><path fill="#FFF" d="M0 0h1440v720H0z"/><path fill="#9272CC" d="M-199 720h1838V0H-199z"/><g transform="translate(0 35)"><path d="M138.899 154.855L721.835 65.42c14.82-2.274 29.292 4.89 32.325 16.001.852 3.123.723 6.352-.378 9.432L616.04 476.259c-3.915 10.955-18.934 17.456-33.545 14.52-4.107-.825-7.902-2.355-11.083-4.47L126.218 190.337c-11.318-7.525-12.357-20.503-2.321-28.989 3.932-3.324 9.196-5.603 15.002-6.493z" fill="url(#a)" style="mix-blend-mode:soft-light" opacity=".458"/><g style="mix-blend-mode:soft-light"><path d="M497.382 228.935a4.404 4.404 0 006.226-.008 4.404 4.404 0 00.008-6.226 4.404 4.404 0 00-6.226.008 4.404 4.404 0 00-.008 6.226M513.87 245.424a4.404 4.404 0 006.227-.008 4.404 4.404 0 00.008-6.227 4.404 4.404 0 00-6.227.009 4.404 4.404 0 00-.008 6.226M531.458 263.012a4.404 4.404 0 006.226-.008 4.404 4.404 0 00.009-6.227 4.404 4.404 0 00-6.227.008 4.404 4.404 0 00-.008 6.227M420.39 186.11a4.404 4.404 0 006.226-.008 4.404 4.404 0 00.009-6.226 4.404 4.404 0 00-6.227.008 4.404 4.404 0 00-.008 6.226M436.878 202.599a4.404 4.404 0 006.227-.008 4.404 4.404 0 00.008-6.227 4.404 4.404 0 00-6.226.009 4.404 4.404 0 00-.009 6.226M454.466 220.187a4.404 4.404 0 006.227-.008 4.404 4.404 0 00.008-6.227 4.404 4.404 0 00-6.226.008 4.404 4.404 0 00-.009 6.227M488.543 254.263a4.404 4.404 0 006.226-.008 4.404 4.404 0 00.008-6.227 4.404 4.404 0 00-6.226.009 4.404 4.404 0 00-.008 6.226M505.03 271.852a4.404 4.404 0 006.226-.008 4.404 4.404 0 00.008-6.226 4.404 4.404 0 00-6.226.008 4.404 4.404 0 00-.008 6.226M522.619 288.34a4.404 4.404 0 006.226-.009 4.404 4.404 0 00.009-6.226 4.404 4.404 0 00-6.227.008 4.404 4.404 0 00-.008 6.226M539.106 305.929a4.404 4.404 0 006.226-.009 4.404 4.404 0 00.009-6.226 4.404 4.404 0 00-6.227.008 4.404 4.404 0 00-.008 6.227M411.55 211.438a4.404 4.404 0 006.227-.008 4.404 4.404 0 00.009-6.227 4.404 4.404 0 00-6.227.009 4.404 4.404 0 00-.008 6.226M428.038 229.027a4.404 4.404 0 006.226-.008 4.404 4.404 0 00.009-6.226 4.404 4.404 0 00-6.227.008 4.404 4.404 0 00-.008 6.226M445.627 245.514a4.404 4.404 0 006.227-.008 4.404 4.404 0 00.008-6.226 4.404 4.404 0 00-6.227.008 4.404 4.404 0 00-.008 6.226M463.215 263.102a4.404 4.404 0 006.226-.008 4.404 4.404 0 00.009-6.227 4.404 4.404 0 00-6.227.009 4.404 4.404 0 00-.008 6.226M479.704 279.59a4.404 4.404 0 006.226-.008 4.404 4.404 0 00.008-6.226 4.404 4.404 0 00-6.226.008 4.404 4.404 0 00-.008 6.227M497.291 297.178a4.404 4.404 0 006.227-.008 4.404 4.404 0 00.008-6.226 4.404 4.404 0 00-6.226.008 4.404 4.404 0 00-.009 6.226M513.78 313.667a4.404 4.404 0 006.226-.008 4.404 4.404 0 00.009-6.227 4.404 4.404 0 00-6.227.009 4.404 4.404 0 00-.008 6.226M531.368 331.255a4.404 4.404 0 006.226-.008 4.404 4.404 0 00.008-6.227 4.404 4.404 0 00-6.226.008 4.404 4.404 0 00-.008 6.227M547.856 347.743a4.404 4.404 0 006.227-.008 4.404 4.404 0 00.008-6.226 4.404 4.404 0 00-6.227.008 4.404 4.404 0 00-.008 6.226M565.444 365.331a4.404 4.404 0 006.226-.008 4.404 4.404 0 00.009-6.227 4.404 4.404 0 00-6.227.009 4.404 4.404 0 00-.008 6.226M386.223 220.277a4.404 4.404 0 006.227-.008 4.404 4.404 0 00.008-6.227 4.404 4.404 0 00-6.227.009 4.404 4.404 0 00-.008 6.226M420.3 254.353a4.404 4.404 0 006.226-.008 4.404 4.404 0 00.008-6.226 4.404 4.404 0 00-6.226.008 4.404 4.404 0 00-.008 6.226M436.787 271.943a4.404 4.404 0 006.226-.009 4.404 4.404 0 00.008-6.226 4.404 4.404 0 00-6.226.008 4.404 4.404 0 00-.008 6.227M454.376 288.43a4.404 4.404 0 006.226-.008 4.404 4.404 0 00.009-6.227 4.404 4.404 0 00-6.227.008 4.404 4.404 0 00-.008 6.227M470.863 306.019a4.404 4.404 0 006.226-.008 4.404 4.404 0 00.009-6.227 4.404 4.404 0 00-6.227.009 4.404 4.404 0 00-.008 6.226M488.452 322.506a4.404 4.404 0 006.227-.008 4.404 4.404 0 00.008-6.227 4.404 4.404 0 00-6.226.009 4.404 4.404 0 00-.009 6.226M504.94 340.095a4.404 4.404 0 006.226-.008 4.404 4.404 0 00.008-6.226 4.404 4.404 0 00-6.226.008 4.404 4.404 0 00-.009 6.226M522.529 356.582a4.404 4.404 0 006.226-.008 4.404 4.404 0 00.008-6.226 4.404 4.404 0 00-6.226.008 4.404 4.404 0 00-.008 6.226M539.016 374.172a4.404 4.404 0 006.226-.009 4.404 4.404 0 00.008-6.226 4.404 4.404 0 00-6.226.008 4.404 4.404 0 00-.008 6.227M556.605 390.659a4.404 4.404 0 006.226-.008 4.404 4.404 0 00.009-6.227 4.404 4.404 0 00-6.227.008 4.404 4.404 0 00-.008 6.227M393.871 263.194a4.404 4.404 0 006.227-.008 4.404 4.404 0 00.008-6.227 4.404 4.404 0 00-6.226.008 4.404 4.404 0 00-.009 6.227M411.46 279.681a4.404 4.404 0 006.227-.008 4.404 4.404 0 00.008-6.227 4.404 4.404 0 00-6.226.009 4.404 4.404 0 00-.008 6.226M427.948 297.27a4.404 4.404 0 006.226-.008 4.404 4.404 0 00.008-6.226 4.404 4.404 0 00-6.226.008 4.404 4.404 0 00-.008 6.226M445.537 313.757a4.404 4.404 0 006.226-.008 4.404 4.404 0 00.009-6.226 4.404 4.404 0 00-6.227.008 4.404 4.404 0 00-.008 6.226M463.125 331.345a4.404 4.404 0 006.226-.008 4.404 4.404 0 00.008-6.227 4.404 4.404 0 00-6.226.009 4.404 4.404 0 00-.008 6.226M479.613 347.834a4.404 4.404 0 006.227-.009 4.404 4.404 0 00.008-6.226 4.404 4.404 0 00-6.227.008 4.404 4.404 0 00-.008 6.227M497.201 365.421a4.404 4.404 0 006.226-.008 4.404 4.404 0 00.009-6.226 4.404 4.404 0 00-6.227.008 4.404 4.404 0 00-.008 6.226M513.688 383.01a4.404 4.404 0 006.227-.008 4.404 4.404 0 00.008-6.226 4.404 4.404 0 00-6.227.008 4.404 4.404 0 00-.008 6.227M531.277 399.498a4.404 4.404 0 006.227-.008 4.404 4.404 0 00.008-6.227 4.404 4.404 0 00-6.226.008 4.404 4.404 0 00-.009 6.227M352.057 254.444a4.404 4.404 0 006.226-.008 4.404 4.404 0 00.008-6.227 4.404 4.404 0 00-6.226.008 4.404 4.404 0 00-.008 6.227M368.545 270.932a4.404 4.404 0 006.227-.008 4.404 4.404 0 00.008-6.226 4.404 4.404 0 00-6.227.008 4.404 4.404 0 00-.008 6.226M386.133 288.52a4.404 4.404 0 006.226-.008 4.404 4.404 0 00.009-6.227 4.404 4.404 0 00-6.227.009 4.404 4.404 0 00-.008 6.226M402.62 306.11a4.404 4.404 0 006.226-.009 4.404 4.404 0 00.009-6.226 4.404 4.404 0 00-6.227.008 4.404 4.404 0 00-.008 6.226M420.21 322.596a4.404 4.404 0 006.226-.008 4.404 4.404 0 00.008-6.226 4.404 4.404 0 00-6.226.008 4.404 4.404 0 00-.009 6.226M436.696 340.186a4.404 4.404 0 006.227-.009 4.404 4.404 0 00.008-6.226 4.404 4.404 0 00-6.226.008 4.404 4.404 0 00-.009 6.227M454.286 356.673a4.404 4.404 0 006.226-.008 4.404 4.404 0 00.008-6.227 4.404 4.404 0 00-6.226.008 4.404 4.404 0 00-.008 6.227M470.773 374.262a4.404 4.404 0 006.226-.008 4.404 4.404 0 00.008-6.227 4.404 4.404 0 00-6.226.009 4.404 4.404 0 00-.008 6.226M488.362 390.75a4.404 4.404 0 006.226-.01 4.404 4.404 0 00.009-6.226 4.404 4.404 0 00-6.227.009 4.404 4.404 0 00-.008 6.226M504.849 408.338a4.404 4.404 0 006.226-.008 4.404 4.404 0 00.009-6.226 4.404 4.404 0 00-6.227.008 4.404 4.404 0 00-.008 6.226M343.218 279.771a4.404 4.404 0 006.226-.008 4.404 4.404 0 00.008-6.226 4.404 4.404 0 00-6.226.008 4.404 4.404 0 00-.008 6.226M359.705 297.36a4.404 4.404 0 006.226-.008 4.404 4.404 0 00.008-6.226 4.404 4.404 0 00-6.226.008 4.404 4.404 0 00-.008 6.227M377.294 313.848a4.404 4.404 0 006.226-.009 4.404 4.404 0 00.009-6.226 4.404 4.404 0 00-6.227.008 4.404 4.404 0 00-.008 6.227M393.781 331.437a4.404 4.404 0 006.226-.008 4.404 4.404 0 00.009-6.227 4.404 4.404 0 00-6.227.008 4.404 4.404 0 00-.008 6.227M411.37 347.924a4.404 4.404 0 006.227-.008 4.404 4.404 0 00.008-6.227 4.404 4.404 0 00-6.227.009 4.404 4.404 0 00-.008 6.226M428.958 365.512a4.404 4.404 0 006.226-.008 4.404 4.404 0 00.009-6.227 4.404 4.404 0 00-6.227.008 4.404 4.404 0 00-.008 6.227M445.447 382a4.404 4.404 0 006.226-.008 4.404 4.404 0 00.008-6.226 4.404 4.404 0 00-6.226.008 4.404 4.404 0 00-.008 6.226M463.034 399.588a4.404 4.404 0 006.227-.008 4.404 4.404 0 00.008-6.227 4.404 4.404 0 00-6.226.009 4.404 4.404 0 00-.009 6.226M300.302 271.023a4.404 4.404 0 006.227-.009 4.404 4.404 0 00.008-6.226 4.404 4.404 0 00-6.227.008 4.404 4.404 0 00-.008 6.227M317.89 288.61a4.404 4.404 0 006.226-.008 4.404 4.404 0 00.009-6.226 4.404 4.404 0 00-6.227.008 4.404 4.404 0 00-.008 6.226M334.377 306.2a4.404 4.404 0 006.226-.009 4.404 4.404 0 00.009-6.226 4.404 4.404 0 00-6.227.008 4.404 4.404 0 00-.008 6.227M351.966 322.687a4.404 4.404 0 006.227-.008 4.404 4.404 0 00.008-6.227 4.404 4.404 0 00-6.226.008 4.404 4.404 0 00-.009 6.227M368.453 340.276a4.404 4.404 0 006.227-.008 4.404 4.404 0 00.008-6.227 4.404 4.404 0 00-6.226.009 4.404 4.404 0 00-.009 6.226M386.043 356.763a4.404 4.404 0 006.226-.008 4.404 4.404 0 00.008-6.227 4.404 4.404 0 00-6.226.009 4.404 4.404 0 00-.008 6.226M402.53 374.352a4.404 4.404 0 006.226-.008 4.404 4.404 0 00.008-6.226 4.404 4.404 0 00-6.226.008 4.404 4.404 0 00-.008 6.226M359.614 365.604a4.404 4.404 0 006.227-.009 4.404 4.404 0 00.008-6.226 4.404 4.404 0 00-6.226.008 4.404 4.404 0 00-.009 6.227M377.204 382.09a4.404 4.404 0 006.226-.008 4.404 4.404 0 00.008-6.226 4.404 4.404 0 00-6.226.008 4.404 4.404 0 00-.008 6.227" fill="#3D3F3C"/></g><g style="mix-blend-mode:soft-light"><path d="M1080.174 395.666a4.406 4.406 0 000-8.812 4.406 4.406 0 000 8.812M1104.307 394.887a4.406 4.406 0 000-8.811 4.406 4.406 0 000 8.811M996.098 419.031a4.406 4.406 0 000-8.811 4.406 4.406 0 000 8.811M1019.452 419.031a4.406 4.406 0 000-8.811 4.406 4.406 0 000 8.811M1044.364 419.031a4.406 4.406 0 000-8.811 4.406 4.406 0 000 8.811M1067.718 419.031a4.406 4.406 0 000-8.811 4.406 4.406 0 000 8.811M1092.63 419.031a4.406 4.406 0 000-8.811 4.406 4.406 0 000 8.811M1115.984 419.031a4.406 4.406 0 000-8.811 4.406 4.406 0 000 8.811M1140.896 419.031a4.406 4.406 0 000-8.811 4.406 4.406 0 000 8.811M1164.25 419.031a4.406 4.406 0 000-8.811 4.406 4.406 0 000 8.811M1189.162 419.031a4.406 4.406 0 000-8.811 4.406 4.406 0 000 8.811M911.242 443.175a4.406 4.406 0 000-8.811 4.406 4.406 0 000 8.811M934.597 443.175a4.406 4.406 0 000-8.811 4.406 4.406 0 000 8.811M959.509 443.175a4.406 4.406 0 000-8.811 4.406 4.406 0 000 8.811M1007.775 443.175a4.406 4.406 0 000-8.811 4.406 4.406 0 000 8.811M1031.908 443.954a4.406 4.406 0 000-8.811 4.406 4.406 0 000 8.811M1056.041 443.175a4.406 4.406 0 000-8.811 4.406 4.406 0 000 8.811M1080.174 443.954a4.406 4.406 0 000-8.811 4.406 4.406 0 000 8.811M1104.307 443.175a4.406 4.406 0 000-8.811 4.406 4.406 0 000 8.811M1129.219 443.175a4.406 4.406 0 000-8.811 4.406 4.406 0 000 8.811M1152.573 443.175a4.406 4.406 0 000-8.811 4.406 4.406 0 000 8.811M1177.485 443.175a4.406 4.406 0 000-8.811 4.406 4.406 0 000 8.811M922.92 467.32a4.406 4.406 0 000-8.812 4.406 4.406 0 000 8.811M947.053 468.098a4.406 4.406 0 000-8.811 4.406 4.406 0 000 8.811M971.186 467.32a4.406 4.406 0 000-8.812 4.406 4.406 0 000 8.811M996.098 467.32a4.406 4.406 0 000-8.812 4.406 4.406 0 000 8.811M1019.452 467.32a4.406 4.406 0 000-8.812 4.406 4.406 0 000 8.811M1044.364 467.32a4.406 4.406 0 000-8.812 4.406 4.406 0 000 8.811M1067.718 467.32a4.406 4.406 0 000-8.812 4.406 4.406 0 000 8.811M1092.63 467.32a4.406 4.406 0 000-8.812 4.406 4.406 0 000 8.811M1115.984 467.32a4.406 4.406 0 000-8.812 4.406 4.406 0 000 8.811M1140.896 467.32a4.406 4.406 0 000-8.812 4.406 4.406 0 000 8.811M1165.03 468.098a4.406 4.406 0 000-8.811 4.406 4.406 0 000 8.811M1189.162 467.32a4.406 4.406 0 000-8.812 4.406 4.406 0 000 8.811M911.242 491.464a4.406 4.406 0 000-8.812 4.406 4.406 0 000 8.812M959.509 491.464a4.406 4.406 0 000-8.812 4.406 4.406 0 000 8.812M983.642 492.242a4.406 4.406 0 000-8.811 4.406 4.406 0 000 8.811M1007.775 491.464a4.406 4.406 0 000-8.812 4.406 4.406 0 000 8.812M1031.908 492.242a4.406 4.406 0 000-8.811 4.406 4.406 0 000 8.811M1056.041 491.464a4.406 4.406 0 000-8.812 4.406 4.406 0 000 8.812M1080.174 492.242a4.406 4.406 0 000-8.811 4.406 4.406 0 000 8.811M1104.307 491.464a4.406 4.406 0 000-8.812 4.406 4.406 0 000 8.812M1128.44 492.242a4.406 4.406 0 000-8.811 4.406 4.406 0 000 8.811M1152.573 491.464a4.406 4.406 0 000-8.812 4.406 4.406 0 000 8.812M1177.485 491.464a4.406 4.406 0 000-8.812 4.406 4.406 0 000 8.812M1200.84 491.464a4.406 4.406 0 000-8.812 4.406 4.406 0 000 8.812M947.053 516.386a4.406 4.406 0 000-8.811 4.406 4.406 0 000 8.811M971.186 515.608a4.406 4.406 0 000-8.812 4.406 4.406 0 000 8.812M995.319 516.386a4.406 4.406 0 000-8.811 4.406 4.406 0 000 8.811M1019.452 515.608a4.406 4.406 0 000-8.812 4.406 4.406 0 000 8.812M1044.364 515.608a4.406 4.406 0 000-8.812 4.406 4.406 0 000 8.812M1067.718 515.608a4.406 4.406 0 000-8.812 4.406 4.406 0 000 8.812M1092.63 515.608a4.406 4.406 0 000-8.812 4.406 4.406 0 000 8.812M1116.763 516.386a4.406 4.406 0 000-8.811 4.406 4.406 0 000 8.811M1140.896 515.608a4.406 4.406 0 000-8.812 4.406 4.406 0 000 8.812M1165.03 516.386a4.406 4.406 0 000-8.811 4.406 4.406 0 000 8.811M1189.162 515.608a4.406 4.406 0 000-8.812 4.406 4.406 0 000 8.812M1213.295 516.386a4.406 4.406 0 000-8.811 4.406 4.406 0 000 8.811M911.242 539.752a4.406 4.406 0 000-8.812 4.406 4.406 0 000 8.812M934.597 539.752a4.406 4.406 0 000-8.812 4.406 4.406 0 000 8.812M959.509 539.752a4.406 4.406 0 000-8.812 4.406 4.406 0 000 8.812M983.642 540.53a4.406 4.406 0 000-8.811 4.406 4.406 0 000 8.812M1007.775 539.752a4.406 4.406 0 000-8.812 4.406 4.406 0 000 8.812M1031.908 540.53a4.406 4.406 0 000-8.811 4.406 4.406 0 000 8.812M1056.041 539.752a4.406 4.406 0 000-8.812 4.406 4.406 0 000 8.812M1080.174 540.53a4.406 4.406 0 000-8.811 4.406 4.406 0 000 8.812M1104.307 539.752a4.406 4.406 0 000-8.812 4.406 4.406 0 000 8.812M1128.44 540.53a4.406 4.406 0 000-8.811 4.406 4.406 0 000 8.812M1152.573 539.752a4.406 4.406 0 000-8.812 4.406 4.406 0 000 8.812M1176.706 540.53a4.406 4.406 0 000-8.811 4.406 4.406 0 000 8.812M922.92 563.896a4.406 4.406 0 000-8.812 4.406 4.406 0 000 8.812M947.053 564.675a4.406 4.406 0 000-8.812 4.406 4.406 0 000 8.812M971.186 563.896a4.406 4.406 0 000-8.812 4.406 4.406 0 000 8.812M995.319 564.675a4.406 4.406 0 000-8.812 4.406 4.406 0 000 8.812M1019.452 563.896a4.406 4.406 0 000-8.812 4.406 4.406 0 000 8.812M1044.364 563.896a4.406 4.406 0 000-8.812 4.406 4.406 0 000 8.812M1067.718 563.896a4.406 4.406 0 000-8.812 4.406 4.406 0 000 8.812M1092.63 563.896a4.406 4.406 0 000-8.812 4.406 4.406 0 000 8.812M1116.763 564.675a4.406 4.406 0 000-8.812 4.406 4.406 0 000 8.812M1140.896 563.896a4.406 4.406 0 000-8.812 4.406 4.406 0 000 8.812M1165.03 564.675a4.406 4.406 0 000-8.812 4.406 4.406 0 000 8.812M886.33 588.04a4.406 4.406 0 000-8.812 4.406 4.406 0 000 8.812M911.242 588.04a4.406 4.406 0 000-8.812 4.406 4.406 0 000 8.812M935.376 588.819a4.406 4.406 0 000-8.812 4.406 4.406 0 000 8.812M959.509 588.04a4.406 4.406 0 000-8.812 4.406 4.406 0 000 8.812M983.642 588.819a4.406 4.406 0 000-8.812 4.406 4.406 0 000 8.812M1007.775 588.04a4.406 4.406 0 000-8.812 4.406 4.406 0 000 8.812M1031.908 588.819a4.406 4.406 0 000-8.812 4.406 4.406 0 000 8.812M1080.174 588.819a4.406 4.406 0 000-8.812 4.406 4.406 0 000 8.812M1104.307 588.04a4.406 4.406 0 000-8.812 4.406 4.406 0 000 8.812M1128.44 588.819a4.406 4.406 0 000-8.812 4.406 4.406 0 000 8.812" fill="#3D3F3C"/><g transform="translate(869.927 602.594)"><mask id="d" fill="#fff"><use xlink:href="#c"/></mask><path d="M4.595 9.913a4.599 4.599 0 000-9.197 4.599 4.599 0 000 9.197" fill="#3D3F3C" mask="url(#d)"/></g><path d="M898.787 612.963a4.406 4.406 0 000-8.812 4.406 4.406 0 000 8.812M995.319 612.963a4.406 4.406 0 000-8.812 4.406 4.406 0 000 8.812M1019.452 612.184a4.406 4.406 0 000-8.812 4.406 4.406 0 000 8.812M1092.63 612.184a4.406 4.406 0 000-8.812 4.406 4.406 0 000 8.812" fill="#3D3F3C"/></g><path d="M582.762 219.722l601.218-92.37c15.284-2.348 30.21 5.051 33.338 16.527.88 3.226.746 6.56-.389 9.741l-142.063 398.057c-4.038 11.315-19.527 18.029-34.597 14.997-4.236-.852-8.15-2.433-11.431-4.617L569.683 256.369c-11.673-7.772-12.745-21.176-2.394-29.94 4.056-3.433 9.485-5.787 15.473-6.707z" fill="url(#e)" fill-rule="nonzero" opacity=".5" transform="rotate(165 889.034 347.16)"/><path d="M321.061 269.824L394.8 332.5c12.74 10.828 11.42 27.39-2.946 36.992-4.039 2.7-8.855 4.653-14.069 5.706l-96.018 19.392c-18.547 3.745-37.612-4.55-42.581-18.53-1.397-3.93-1.561-8.05-.48-12.036l22.282-82.067c3.85-14.18 22.22-23.321 41.032-20.42 7.37 1.137 14.051 4.045 19.042 8.287zM1245.605 203.339l-285.02 189.824c-16.99 11.314-42.973 10.142-58.037-2.617-4.235-3.586-7.3-7.864-8.951-12.494L805.41 130.869c-5.877-16.472 7.139-33.403 29.07-37.817a54.388 54.388 0 0118.883-.425l373.207 57.359c22.244 3.419 36.587 19.734 32.035 36.44-1.784 6.546-6.345 12.48-13.001 16.913z" stroke="#FFF" stroke-width="3" opacity=".3"/><path fill="url(#f)" d="M0 571h1440v114H0z"/><ellipse fill="#282F39" fill-rule="nonzero" opacity=".4" style="mix-blend-mode:soft-light" filter="url(#g)" cx="580.5" cy="614" rx="188.5" ry="12"/><ellipse fill="#282F39" fill-rule="nonzero" opacity=".5" style="mix-blend-mode:soft-light" filter="url(#h)" cx="960.5" cy="644" rx="188.5" ry="12"/><g transform="translate(800 57)"><path d="M73.06 496.17c-1.068 5.217-2.027 9.251-2.878 12.103-.852 2.852-1.539 4.33-2.06 4.432 1.917 5.925 3.928 9.611 6.034 11.058 2.106 1.447 5.46 1.447 10.06 0l8.991-21.422-20.148-6.172zM316.976 431.975l11.218-5.84c2.902-.932 5.01-.002 6.323 2.79 1.313 2.791 1.744 7.48 1.293 14.069-3.586 2.264-6.354 3.925-8.306 4.981-1.952 1.057-4.793 2.433-8.524 4.128l-2.004-20.128zM129.24 52.636c-.183-7.21-.883-11.247-2.1-12.112-1.825-1.299-10.626-12.129-8.694-20.634 1.288-5.67 5.902-10.322 13.842-13.957 2.428-.498 3.992-.498 4.69 0 3.627 2.584 4.436 6.53 4.668 6.768.45.46 6.844-4.656 7.466 1.266.623 5.923-.009 11.276-3.737 17.304-3.729 6.03 0 18.72 0 19.46 0 .492-5.379 1.127-16.136 1.905zM321.928 48.98c2.029-4.405 3.043-8.348 3.043-11.83 0-5.223-4.26-6.219-6.698-13.729-2.438-7.51-.98-13.77.625-13.77s5.015 2.014 7.059-.933C328 5.77 331.069.406 333.654.053c2.584-.353 4.665 1.148 5.553 1.729.637.417 1.392 1.342 2.262 2.775 1.547.33 2.579.725 3.096 1.188.518.462.818 1.256.9 2.382 1.645.296 2.699.66 3.162 1.095.463.433.774 1.347.933 2.74l.771 4.168c.032 4.797-1.204 8.818-3.707 12.063-3.755 4.867-7.417 10.664-7.417 16.447 0 5.783-1.6 8.695-1.6 8.695l-15.679-4.355z" fill="url(#i)"/><path d="M63.951 496.06c16.87-52.209 27.485-85.192 31.847-98.95 6.542-20.637 14.106-29.25 27.313-38.872 7.745-5.642 14.764-9.598 29.344-20.934 5.229-4.065 14.48-9.804 20.812-15.895 3.427-3.296 7.775-8.974 13.045-17.036 15.753 13.403 29.508 20.475 41.267 21.215 11.759.74 31.836-.963 60.23-5.109-1.77 22.788-5.079 38.595-9.926 47.422-4.847 8.826-13.351 34.622-25.513 77.386l65.83-18.772 6.97 29.987c-44.593 22.505-73.582 35.69-86.966 39.558-20.076 5.8-25.172-9.233-25.172-42.511 0-33.279 7.221-88.607-3.618-88.607-10.84 0-57.28 34.139-69.69 44.63-12.408 10.492-34.803 98.312-43.926 100.26-6.082 1.298-16.698-3.293-31.847-13.772z" fill="url(#j)" fill-rule="nonzero"/><path d="M252.37 445.287l65.83-18.772 3.371 14.503a1623.839 1623.839 0 00-40.303 11.085c-13.384 3.868-23.016 1.596-28.898-6.816zM209.414 356.618c10.002.63 16.113 4.944 14.084 34.94-1.55 22.896-10.466 76.397-10.466 61.99 0-33.278 7.221-88.606-3.618-88.606-10.84 0-57.28 34.139-69.69 44.63-12.408 10.492 52.051-54.064 69.69-52.954z" fill="#101023" fill-rule="nonzero" opacity=".285"/><path d="M219.048 161.051c2.91-1.587 4.967-4.328 6.172-8.224 1.806-5.843 0-12.093 0-12.093l28.213-26.759c-1.2 11.45-1.799 18.734-1.799 21.854 0 23.229 6.925 25.84 1.799 28.443-5.126 2.604-10.07 7.374-21.337 7.007-2.194-.072-6.543-3.48-13.048-10.228z" fill="url(#k)"/><path d="M226.009 146.294c-.104-3.188-.79-5.56-.79-5.56l28.214-26.759c-.95 8.077-1.424 13.75-1.424 17.02 0 4.905-5.582 11.342-26 15.299z" fill="url(#l)"/><g transform="translate(177.951 151.492)"><mask id="o" fill="#fff"><use xlink:href="#m"/></mask><use fill="url(#n)" xlink:href="#m"/><path d="M-59.78 33.424c24.22-3.752 41.457-5.627 51.713-5.627 33.156 0 62.823 4.999 86.472 5.627 61.407 1.63 89.817 0 89.817 0M-1.39 61.26c16.664-6.346 28.625-9.908 35.883-10.688 11.218-1.205 27.381.357 36.378 0 33.065-1.31 45.083-.05 48.261 1.865M4.17 83.273c13.48-8.261 23.797-12.392 30.951-12.392 10.731 0 73.757 4.072 76.386 2.036" stroke="#24244E" stroke-width="2.783" stroke-linecap="round" mask="url(#o)"/><path d="M-9.732 137.233l38.654-.001c18.418 0 29.014-7.946 39.035-8.828 10.753-.947 27.808-9.42 36.956-8.768 14.806 1.057 18.987 8.166 20.497 7.238" stroke="#24244E" stroke-width="2.783" stroke-linecap="round" mask="url(#o)" transform="rotate(5 57.839 128.417)"/><path d="M1.39 102.326c5.55-.398 15.21-2.46 28.98-6.186 20.656-5.59 27.204-5.801 36.032-5.801h41.518" stroke="#24244E" stroke-width="2.783" stroke-linecap="round" mask="url(#o)"/><path d="M1.119 155.32c5.55-.399 15.21-2.461 28.98-6.188 20.656-5.59 27.204-5.801 36.031-5.801l41.519-.002" stroke="#24244E" stroke-width="2.783" stroke-linecap="round" mask="url(#o)" transform="rotate(-175 54.384 149.324)"/><path d="M9.732 118.06c16.445 0 25.932-9.203 44.448-9.203 12.344 0 30.128-1.076 53.353-3.23" stroke="#24244E" stroke-width="2.783" stroke-linecap="round" mask="url(#o)"/></g><path d="M188.25 318.923c-8.72-1.434-11.902-7.667-9.548-18.698l14.1-82.693 21.259-65.104 6.645 7.511c-11.392 51.145-16.839 86.245-16.34 105.3.316 12.06-.123 25.331-3.13 34.113-4.61 13.463-12.66 19.57-12.986 19.57zM280.377 322.382c-5.202 2.957-8.933 2.645-11.192-.933-4.903-7.766-9.46-30.439-11.239-39.42-3.682-18.58 3.213-52.008 0-65.191-3.717-15.252-4.694-34.718-2.93-58.397 12.825 21.048 20.667 41.803 23.524 62.264 2.858 20.46 3.47 54.353 1.837 101.677z" fill="#F4B7A9" fill-rule="nonzero" opacity=".222" style="mix-blend-mode:multiply"/><path d="M120.951 50.727l28.245-4.863c13.59 38.965 23.893 62.621 30.91 70.97 6.162 7.332 17.797 19.483 34.904 36.452 2.373 2.354 4.588 10.11 1.41 18.013-7.555 18.787-16.847 47.883-16.847 55.053 0 15.28-18.415 95.097-29.446 95.097-11.031 0-31.928-32.026-27.628-40.544 4.3-8.519 27.181-19.378 35.063-40.6 7.88-21.222 11.005-47.462-7.435-70.339-6.768-8.395-18.376-25.886-27.628-49.13-5.036-12.651-12.219-36.021-21.548-70.109z" fill="url(#p)"/><path d="M179.341 171.299c10.526 12.523 11.23 26.173 11.23 41.453 0 15.28-20.89 48.775-13.01 27.553 7.882-21.222 11.006-47.462-7.434-70.339-6.768-8.395-18.376-25.886-27.628-49.13-7.554-18.977 26.317 37.94 36.842 50.463z" fill="url(#q)" opacity=".6"/><path d="M254.544 158.44c19.798-20.113 32.646-35.444 38.544-45.991 5.897-10.548 14.989-32.743 27.274-66.585l22.203 5.033c-9.027 46.994-16.428 75.266-22.203 84.816-8.664 14.326-27.274 40.011-27.274 52.293 0 12.282 31.428 89.693 29.35 99.005-2.076 9.312-50.867 59.188-53.55 40.446-2.685-18.742-.314-99.57-6.436-123.33-4.081-15.839-6.717-31.068-7.908-45.686z" fill="url(#r)"/><ellipse fill="#FFFAF7" fill-rule="nonzero" cx="270.402" cy="201.525" rx="2.085" ry="2.78"/><ellipse fill="#FFFAF7" fill-rule="nonzero" cx="273.183" cy="223.763" rx="2.085" ry="2.78"/><ellipse fill="#FFFAF7" fill-rule="nonzero" cx="275.963" cy="241.831" rx="2.085" ry="2.78"/><ellipse fill="#FFFAF7" fill-rule="nonzero" cx="278.744" cy="259.898" rx="2.085" ry="2.78"/><ellipse fill="#FFFAF7" fill-rule="nonzero" cx="280.134" cy="280.746" rx="2.085" ry="2.78"/><path d="M254.544 158.44c19.798-20.113 32.646-35.444 38.544-45.991 5.897-10.548 14.989-32.743 27.274-66.585l10.176 2.307c-7.188 28.307-16.076 51.249-26.666 68.827-10.589 17.579-27.032 31.393-49.328 41.443z" fill="url(#s)"/><g transform="scale(-1 1) rotate(-61 411.159 348.706)"><path d="M1.453 24.405c-1.685-1.88-.715-4.531 2.911-7.955l47.143 42.13 8.894-4.057c5.11 7.661 6.256 12.415 3.44 14.261-4.226 2.77-13.42-3.134-20.06-8.36-6.64-5.227-39.8-33.2-42.328-36.019z" fill="url(#n)"/><path d="M18.258 0L4.33 16.486c28.583 27.785 44.45 42.236 47.6 43.354 3.15 1.117 6.11-.523 8.878-4.92l-24.795-47c-5.217.456-9.128.102-11.734-1.06-2.605-1.162-4.613-3.45-6.021-6.86z" fill="url(#t)"/><rect fill="#FFF" fill-rule="nonzero" x="29.116" y="17.373" width="13.346" height="3.861" rx="1.93"/><rect fill="#FFF" fill-rule="nonzero" x="34.836" y="27.024" width="11.44" height="3.861" rx="1.93"/><rect fill="#FFF" fill-rule="nonzero" x="41.707" y="36.136" width="9.533" height="3.861" rx="1.93"/><rect fill="#FFF" fill-rule="nonzero" x="48.182" y="44.397" width="7.626" height="3.861" rx="1.93"/></g><path d="M204.85 80.208c-.645 24.366-.645 39.409 0 45.127.966 8.578 4.038 13.65 12.12 15.947 8.083 2.297 24.447-4.125 30.372-9.39 3.95-3.509 7.237-17.637 9.861-42.385-16.536-9.144-26.03-13.94-28.482-14.386-2.452-.447-10.41 1.248-23.872 5.087z" fill="url(#u)"/><path d="M209.946 126.122c1.594 2.691 4.149 3.813 7.665 3.365 1.452-.185 4.16-1.978 8.125-5.378l-15.79 2.013z" fill="#FFF" fill-rule="nonzero"/><path d="M204.366 105.412c-4.373-6.94-6.683-12.489-6.929-16.649-.246-4.16 1.532-8.364 5.333-12.611-4.082-5.275-4.38-9.813-.896-13.614s8.88-4.942 16.188-3.424c4.442-3.9 8.643-5.477 12.602-4.731 3.96.746 7.709 3.82 11.247 9.224 3.848-1.802 7.501-1.493 10.96.927 3.457 2.42 4.77 6.292 3.936 11.618 4.967 1.5 7.828 4.4 8.583 8.695.755 4.296-.146 8.562-2.703 12.796 1.424 1.486 2.325 3.45 2.703 5.893.378 2.442-.19 4.676-1.703 6.7.187 4.104-.786 7.018-2.916 8.74-2.131 1.722-4.765 2.16-7.9 1.316.722-5.47.722-9.834 0-13.092-.684-3.078 1.216-7.438.74-10.089-.517-2.89-3.405-3.956-4.057-4.338-2.198-1.29-4.846 3.03-10.774-1.487-5.928-4.516-3.378-7.336-8.116-10.021-4.737-2.685-15.97-1.652-21.382 3.582-3.608 3.49-5.246 10.345-4.916 20.565z" fill="url(#j)" fill-rule="nonzero"/><g transform="scale(-1 1) rotate(81 -404.189 11.109)"><path d="M1.961 24.968c-1.714-1.926-.87-4.817 2.533-8.674L51.507 58.58l8.894-4.057c5.11 7.661 6.256 12.415 3.44 14.261-4.226 2.77-13.42-3.134-20.06-8.36-6.64-5.227-39.248-32.568-41.82-35.456z" fill="url(#n)"/><path d="M18.258 0L4.33 16.486c28.658 28.1 44.524 42.552 47.6 43.354 3.075.802 6.034-.838 8.878-4.92l-24.795-47c-5.217.456-9.128.102-11.734-1.06-2.605-1.162-4.613-3.45-6.021-6.86z" fill="url(#t)"/><rect fill="#FFF" fill-rule="nonzero" x="29.116" y="17.373" width="13.346" height="3.861" rx="1.93"/><rect fill="#FFF" fill-rule="nonzero" x="34.836" y="27.024" width="11.44" height="3.861" rx="1.93"/><rect fill="#FFF" fill-rule="nonzero" x="41.707" y="36.136" width="9.533" height="3.861" rx="1.93"/><rect fill="#FFF" fill-rule="nonzero" x="48.182" y="44.397" width="7.626" height="3.861" rx="1.93"/></g></g><path d="M569.97 348.901h-26.992c-.593 0-16.834 6.66-48.722 19.98l-4.043 11.38c22.18 2.725 39.768 3.01 52.765.854 12.997-2.156 30.586-8.275 52.765-18.358l-25.772-13.856z" fill="#C20D08" fill-rule="nonzero"/><path d="M170.014 410.683l92.401-47.384c3.733.18 5.814.371 6.241.57 6.054 2.818 19.123 22.29 15.67 32.748-1.556 4.715-4.596 5.58-9.12 2.596-1.03-1.77-1.76-3.255-2.185-4.456-.914-2.576-1.42-6.231-2.495-8.13-1.828-3.227-6.512-2.317-14.053 2.73-26.05 18.157-50.108 33.402-72.174 45.735-22.067 12.333-34.757 17.626-38.07 15.88l23.785-40.289z" fill="url(#v)" transform="matrix(-1 0 0 1 694 0)"/><path d="M263.761 361.946c7.125-2.69 11.386-3.044 12.784-1.06 2.096 2.976 14.96 27.648 13.068 37.357-1.893 9.71-4.637 14.85-9.046 14.848-2.94-.002-5.925-6.375-8.955-19.118 2.747 3.927 4.69 5.991 5.826 6.191 1.873.33 4.326-1.418 4.468-5.402.408-11.422-5.495-21.761-8.556-27.678-2.04-3.944-5.237-5.657-9.589-5.138z" fill="url(#j)" fill-rule="nonzero" transform="scale(-1 1) rotate(-11 -70.218 3990.09)"/><path d="M191.071 328.414c6.5-2.313 10.409-2.529 11.73-.648 1.98 2.82 14.872 27.941 13.09 37.14-1.784 9.2-4.373 14.07-8.538 14.066-2.776-.003-5.597-6.043-8.465-18.12 2.596 3.724 4.431 5.68 5.506 5.87 1.768.314 4.084-1.342 4.217-5.117.38-10.823-6.337-21.89-9.23-27.498-1.929-3.738-4.698-5.636-8.31-5.693z" fill="url(#j)" fill-rule="nonzero" transform="scale(-1 1) rotate(-21 -143.435 2224.98)"/><path d="M105.43 358.462c-10.217 31.392-15.326 51.552-15.326 60.478 0 13.39 5.206 24.477 18.713 22.274 13.507-2.203 27.946-41.868 33.328-57.884 3.589-10.677 6.208-18.966 7.86-24.868-7.763-3.122-14.322-4.684-19.679-4.684-5.356 0-13.655 1.562-24.895 4.684z" fill="url(#v)" transform="matrix(-1 0 0 1 694 0)"/><path d="M150.004 354.726c-18.859 42.915-27.4 70.718-25.62 83.41 2.668 19.039 17.272 18.488 29.043 13.679 7.847-3.206 23.456-28.716 46.826-76.53-9.189-7.98-17.516-13.497-24.983-16.552-7.467-3.055-15.89-4.391-25.266-4.007z" fill="url(#v)" transform="matrix(-1 0 0 1 694 0)"/><path d="M151.749 252.003c-18.212 25.336-30.83 45.245-37.853 59.727-7.023 14.483-12.305 31.487-15.847 51.013 18.92-3.748 34.968-4.618 48.144-2.61 13.176 2.007 32.381 8.748 57.617 20.222 17.754-25.476 27.77-45.973 30.045-61.492 2.276-15.52 1.411-38.579-2.594-69.18-20.996 5.714-37.287 8.74-48.873 9.079-11.586.338-21.8-1.915-30.64-6.759z" fill="url(#t)" transform="matrix(-1 0 0 1 694 0)"/><path d="M151.749 252.003c-18.212 25.336-30.83 45.245-37.853 59.727-7.023 14.483-12.305 31.487-15.847 51.013 35.192-16.993 56.614-36.937 64.266-59.831 7.651-22.894 30.633-40.637 68.946-53.229-20.996 5.714-37.287 8.74-48.873 9.079-11.586.338-21.8-1.915-30.64-6.759z" fill="url(#w)" opacity=".6" transform="matrix(-1 0 0 1 694 0)"/><path d="M146.193 360.133c13.176 2.007 32.381 8.748 57.617 20.222 17.754-25.476 27.77-45.973 30.045-61.492 2.276-15.52 1.411-38.579-2.594-69.18-14.255 46.694-28.052 74.49-41.394 83.39-20.012 13.35-63.438 24.048-43.674 27.06z" fill="url(#q)" opacity=".921" transform="matrix(-1 0 0 1 694 0)"/><path d="M93.024 108.055l16.855-13.739c34.583 12.679 57.103 21.858 67.562 27.536 15.688 8.518 20.253 26.016 53.38 13.008 22.084-8.672 53.506-19.354 94.268-32.046l14.862 19.038c-25.223 13.2-43.796 23.581-55.717 31.143-17.882 11.342-21.773 16.303-26.578 31.598-2.04 6.492-10.732 16.67-17.425 32.483-2.547 6.017-3.892 18.668-4.033 37.951-25.633 3.229-45.219 4.843-58.757 4.843-13.538 0-23.193-3.395-28.964-10.187 2.823-10.375 4.12-18.837 3.893-25.387-.598-17.189-6.087-38.36-3.893-45.17 5.173-16.057 5.902-19.426-14.103-41.044-13.337-14.412-27.12-24.42-41.35-30.027z" fill="url(#n)" transform="matrix(-1 0 0 1 694 0)"/><path d="M248.884 184.593c0-18.9-10.392-21.653 22.734-34.66 22.085-8.673 44.862-18.033 68.333-28.08-25.223 13.2-43.796 23.58-55.717 31.142-17.882 11.342-21.773 16.303-26.578 31.598-2.04 6.492-10.732 16.67-17.425 32.483-2.547 6.017-3.892 18.668-4.033 37.951-25.633 3.229-45.219 4.843-58.757 4.843-13.538 0-23.193-3.395-28.964-10.187 3.458-12.092 3.978-28.396 1.559-48.913 10.242 17.995 23.133-11.368 51.676 9.008 16.248 11.599 47.172-6.285 47.172-25.185z" fill="url(#x)" fill-rule="nonzero" transform="matrix(-1 0 0 1 694 0)"/><path d="M110.527 94.316c-26.624-11.168-43.396-17.665-50.314-19.49-10.376-2.737-14.236-10.166-16.17-12.355-1.934-2.19-16.995-16.647-15.846-11.809 1.15 4.838 6.629 7.415 0 9.17C21.57 61.588 2.847 67.852.89 72.6c-1.958 4.748 1.89 3.083 16.786 2.227 14.897-.856 22.746 2.545 31.437 6.34 5.793 2.532 20.984 11.534 45.571 27.008 6.298-1.895 10.614-3.864 12.949-5.906 2.335-2.042 3.3-4.693 2.894-7.952zM325.313 103.383c37.478-15.097 58.005-23.527 61.58-25.289 5.362-2.643 13.003-12.314 14.329-14.147 1.325-1.834 12.075-10.517 13-8.665.926 1.852-4.889 6.482-4.169 9.62.72 3.14 12.883 3.882 18.706 5.15 5.823 1.268 25.349 8.725 13.403 10.32-11.947 1.595-26.343-2.676-38.21 2.312-11.867 4.99-31.204 17.405-31.703 18.282-.332.585-11.222 7.599-32.67 21.042-7.505-3.783-12.26-6.984-14.266-9.602-2.005-2.617-2.005-5.625 0-9.023z" fill="url(#v)" transform="matrix(-1 0 0 1 694 0)"/><path d="M186.107 128.023c4.539.46 6.808-.426 6.808-2.657 0-3.155.42-8.283 1.262-15.383l26.533-6.53c-2.675 11.758-1.825 19.932 2.55 24.522 3.149 3.304 7.205 4.998 12.168 5.084 1.932.033-13.027 23.448-27.875 25.344-14.849 1.895-22.764-12.887-21.446-30.38z" fill="url(#k)" transform="matrix(-1 0 0 1 694 0)"/><path d="M193.027 122.024c.117-2.027.5-6.04 1.15-12.04l26.533-6.532-1.009 4.15-.585 10.227c-3.01 2.238-4.96 3.668-5.85 4.292-10.744 7.524-20.314 1.192-20.24-.097z" fill="url(#l)" transform="matrix(-1 0 0 1 694 0)"/><path d="M185.321 73.799c-12.543-12.998-15.591-24.624-9.144-34.877 9.67-15.381 17.25-13.442 25.511-26.285 8.26-12.844 23.663.483 41.99-1.291 18.328-1.775 18.775-16.133 33.223-8.257 14.45 7.876 20.436 5.46 20.546 13.1.037 2.595-21.98 4.982-20.546 7.336.57.936 23.736 1.995 24.668 2.865 5.214 4.862 25.414 11.352 17.214 17.571-8.2 6.22-11.525-1.018-17.214 6.072-5.688 7.091-20.985 7.554-22.659 8.933-1.114.917 13.856.917 20.965 3.68 7.109 2.764 27.971 18.764 9.257 17.558-10.702-.69-8.717 3.865-19.818 6.298s-24.778 2.666-24.872 3.496c-.14 1.256 22.43 2.085 22.09 2.999-3.67 9.896-18.4 1.293-32.172 10.281-10.588 6.91-22.395 4.126-35.42-8.355C220.18 83.575 215.65 76 205.353 72.2c-10.297-3.802-16.974-3.269-20.032 1.6z" fill="url(#j)" fill-rule="nonzero" transform="matrix(-1 0 0 1 694 0)"/><path d="M185.321 73.799c-6.605-8.163-10.45-14.125-11.533-17.886-.986-3.419 20.257-14.27 34.38-11.952 10.787 1.771 14.325 9.556 28.31 24.205 3.546 3.714 17.301 1.3 28.609 4.033 5.436 1.313 12.874 6.252 22.311 14.815-15.242 1.436-22.894 2.43-22.956 2.984-.14 1.256 22.43 2.085 22.09 2.999-3.67 9.896-18.4 1.293-32.172 10.281-10.588 6.91-22.395 4.126-35.42-8.355C220.18 83.575 215.65 76 205.353 72.2c-10.297-3.802-16.974-3.269-20.032 1.6z" fill="url(#y)" fill-rule="nonzero" transform="matrix(-1 0 0 1 694 0)"/><path d="M176.177 38.922c9.67-15.381 17.25-13.442 25.511-26.285 8.26-12.844 23.663.483 41.99-1.291 18.328-1.775 18.775-16.133 33.223-8.257 14.45 7.876 20.436 5.46 20.546 13.1.037 2.595-21.98 4.982-20.546 7.336.57.936 23.736 1.995 24.668 2.865 4.966 4.63-18.146 13.712-48.488 14.116-13.505.18-35.224-12.25-44.913-8.892-13.162 4.564-41.662 22.688-31.99 7.308z" fill="url(#z)" fill-rule="nonzero" transform="matrix(-1 0 0 1 694 0)"/><path d="M185.089 68.406c-1.498 7.929-.884 25.301.876 32.535 1.76 7.233 10.868 21.876 20.331 18.117 9.464-3.759 16.56-13.578 21.304-25.418 2.488-6.212-1.329-30.275-11.292-34.142-9.964-3.867-5.197-13.329-10.267-13.173-11.62.357-19.202 12.816-20.952 22.081z" fill="url(#A)" transform="matrix(-1 0 0 1 694 0)"/><path d="M502.823 94.636c-.816 3.54-2.695 5.66-5.636 6.358-2.942.7-5.859-.023-8.75-2.166l14.386-4.192z" fill="#FEFFFF" fill-rule="nonzero"/></g></g></svg>